<svg width="2045" height="1485" xmlns="http://www.w3.org/2000/svg" xmlns:xlink="http://www.w3.org/1999/xlink">
 <defs>
  <linearGradient id="imagebot_357">
   <stop offset="0" stop-color="#1a1a1a" id="imagebot_409"/>
   <stop offset="1" stop-color="#2b1100" id="imagebot_408"/>
  </linearGradient>
  <linearGradient id="imagebot_359">
   <stop offset="0" stop-color="#ffbd00" id="imagebot_402"/>
   <stop offset="1" stop-color="#f00" id="imagebot_401"/>
  </linearGradient>
  <linearGradient x1="0.49995" y1="0.24139" x2="0.49893" xlink:href="#imagebot_359" y2="1.10216" id="imagebot_80"/>
  <linearGradient x1="0.52557" y1="0.21841" x2="0.52557" y2="1.41234" id="imagebot_78">
   <stop offset="0" stop-color="#ff0" id="imagebot_400"/>
   <stop offset="1" stop-opacity="0" stop-color="#ffed00" id="imagebot_399"/>
  </linearGradient>
  <linearGradient x1="0.4989" y1="-0.00004" x2="0.4989" xlink:href="#imagebot_359" y2="1.0489" id="imagebot_76"/>
  <linearGradient x1="-0.17682" y1="1.00005" x2="0.99999" xlink:href="#imagebot_357" y2="1.00005" id="imagebot_305"/>
  <linearGradient x1="0.65079" x2="-0.16702" y1="0.65651" y2="0.65651" id="imagebot_303">
   <stop offset="0" stop-color="#fff" id="imagebot_398"/>
   <stop offset="1" stop-opacity="0" stop-color="#fff" id="imagebot_397"/>
  </linearGradient>
 </defs>
 <g id="imagebot_2">
  <title>imagebot_2</title>
  <g transform="translate(0.00327105, 0.000226435) matrix(6.93768, 0, 0, 6.93768, -1553.25, -409.532)" id="imagebot_412">
   <g transform="translate(1654.6, 1120.69) matrix(1, 0, 0, 1, -1390, -1175.35)" id="imagebot_348">
    <path d="M117.86,113.69 S81.458,203.488 81.458,231.91 C81.458,241.479 85.5731,248.752 91.0477,254.204 L144.644,254.204 C150.12,248.751 154.261,241.481 154.261,231.91 C154.261,203.489 117.859,113.69 117.859,113.69 L117.86,113.69 z" fill="url(#imagebot_80)" id="imagebot_351"/>
    <path d="M117.86,126.04 S85.344,204.08 85.344,228.79 C85.344,238.87 90.7608,246.041 97.17,250.989 L138.548,250.989 C144.958,246.041 150.374,238.87 150.374,228.79 C150.374,204.083 117.858,126.04 117.858,126.04 L117.86,126.04 z" fill="url(#imagebot_78)" id="imagebot_350"/>
    <path d="M117.88,173.46 S96.017,220.605 96.017,235.528 C96.017,243.195 101.79,248.063 107.396,250.989 L128.337,250.989 C133.945,248.063 139.716,243.197 139.716,235.528 C139.716,220.605 117.881,173.46 117.881,173.46 L117.88,173.46 z" fill="url(#imagebot_76)" id="imagebot_349"/>
   </g>
   <g transform="translate(1654.6, 1120.69) matrix(1, 0, 0, 1, -1447, -1095.35)" id="imagebot_345">
    <path fill="url(#imagebot_305)" d="M289.01,125.86 C287.916,125.87 285.491,126.025 284.479,126.329 C271.114,130.344 269.623,156.682 269.818,177.499 C269.827,178.474 268.967,179.356 268.162,179.905 C266.554,181.001 264.618,180.941 262.474,181.217 C228.141,180.952 103.484,179.832 86.4741,177.561 C70.6261,175.447 59.5411,160.948 45.7551,156.811 C41.0446,155.398 33.6661,155.088 27.4741,155.124 C21.2814,155.159 16.2861,155.561 16.2861,155.561 S36.0121,157.635 44.5671,162.186 C51.6238,165.94 60.2961,173.839 66.2861,181.436 C67.9451,183.54 68.6244,186.217 70.0673,188.53 L278.317,188.53 C279.693,186.325 280.361,184.409 281.63,182.499 C289.822,170.167 311.039,157.6 310.358,144.892 C309.953,137.351 300.39,128.063 292.358,126.236 C291.233,125.98 290.108,125.851 289.014,125.861 L289.01,125.86 z M287.358,137.311 C293.47,137.323 300.646,143.62 300.782,149.623 C301.043,161.121 289.92,169.549 278.876,178.904 C278.177,179.497 274.384,179.788 274.341,178.873 C273.233,155.339 272.95,140.158 286.171,137.435 C286.563,137.354 286.951,137.309 287.358,137.31 L287.358,137.31 z M72.8082,192.591 C84.9282,208.962 106.501,221.918 133.058,228.591 L215.277,228.591 C241.848,221.922 263.433,208.966 275.558,192.591 L72.8082,192.591 z M133.339,232.622 C125.727,236.677 120.049,241.858 117.151,247.684 L231.211,247.684 C228.311,241.852 222.641,236.676 215.023,232.622 L133.335,232.622 z" id="imagebot_347"/>
    <path fill="url(#imagebot_303)" d="M289,125.88 C287.906,125.89 285.481,126.045 284.469,126.349 C271.104,130.364 269.617,156.688 269.813,177.505 C269.822,178.48 268.962,179.362 268.157,179.911 C267.609,180.284 267.025,180.497 266.407,180.661 L266.407,188.536 L278.313,188.536 C279.688,186.331 280.356,184.415 281.625,182.505 C284.553,178.097 289.152,173.655 293.813,169.193 L293.813,165.349 C289.712,169.959 284.288,174.327 278.875,178.911 C278.176,179.503 274.387,179.795 274.344,178.88 C273.236,155.346 272.935,140.165 286.156,137.442 C286.548,137.361 286.936,137.316 287.343,137.317 C289.484,137.321 291.758,138.115 293.812,139.379 L293.812,126.629 C293.323,126.469 292.824,126.364 292.343,126.254 C291.219,125.998 290.093,125.869 289,125.879 L289,125.88 z M298.125,128.661 L298.125,143.13 C299.713,145.109 300.73,147.392 300.781,149.63 C300.861,153.152 299.852,156.382 298.125,159.443 L298.125,165.005 C299.294,163.854 300.446,162.691 301.531,161.536 L301.531,131.036 C300.433,130.154 299.295,129.353 298.125,128.661 z M304.125,133.349 L304.125,158.63 C305.414,157.098 306.58,155.573 307.531,154.036 L307.531,137.474 C306.571,136.034 305.416,134.647 304.125,133.349 z M155.845,179.943 L155.845,188.536 L171.283,188.536 L171.283,180.193 C166.004,180.111 161,180.034 155.845,179.943 z M176.439,180.286 L176.439,188.536 L183.283,188.536 L183.283,180.38 C180.996,180.348 178.729,180.32 176.439,180.287 z M186.72,180.411 L186.72,188.536 L193.564,188.536 L193.564,180.505 C191.303,180.476 189.001,180.443 186.72,180.412 z M197.001,180.536 L197.001,188.536 L200.439,188.536 L200.439,180.599 C199.255,180.584 198.194,180.552 197.001,180.536 z M203.001,180.63 L203.001,188.536 L206.439,188.536 L206.439,180.661 C205.275,180.648 204.176,180.644 203.001,180.63 z M210.689,180.693 L210.689,188.536 L227.844,188.536 L227.844,180.911 C222.151,180.854 216.982,180.765 210.689,180.693 z M231.283,180.943 L231.283,188.536 L238.158,188.536 L238.158,181.005 C235.666,180.982 233.984,180.969 231.283,180.943 z M245.001,181.068 L245.001,188.536 L248.408,188.536 L248.408,181.099 C247.358,181.09 246.117,181.078 245.001,181.068 z M253.564,181.13 L253.564,188.536 L260.408,188.536 L260.408,181.193 C258.824,181.18 255.46,181.146 253.564,181.13 z M155.845,192.599 L155.845,228.599 L171.283,228.599 L171.283,192.599 L155.845,192.599 z M176.439,192.599 L176.439,228.599 L183.283,228.599 L183.283,192.599 L176.439,192.599 z M186.72,192.599 L186.72,228.599 L193.564,228.599 L193.564,192.599 L186.72,192.599 z M197.001,192.599 L197.001,228.599 L200.439,228.599 L200.439,192.599 L197.001,192.599 z M203.001,192.599 L203.001,228.599 L206.439,228.599 L206.439,192.599 L203.001,192.599 z M210.689,192.599 L210.689,228.599 L215.282,228.599 C219.613,227.512 223.799,226.226 227.844,224.818 L227.844,192.599 L210.688,192.599 z M231.283,192.599 L231.283,223.599 C233.634,222.711 235.921,221.779 238.158,220.787 L238.158,192.599 L231.283,192.599 z M245.001,192.599 L245.001,217.474 C246.156,216.873 247.292,216.26 248.408,215.63 L248.408,192.599 L245.001,192.599 z M253.564,192.599 L253.564,212.537 C255.962,211.002 258.235,209.393 260.408,207.725 L260.408,192.6 L253.564,192.6 z M266.408,192.599 L266.408,202.693 C269.865,199.504 272.945,196.137 275.564,192.599 L266.408,192.599 z M155.848,232.63 L155.848,247.692 L171.286,247.692 L171.286,232.63 L155.848,232.63 z M176.442,232.63 L176.442,247.692 L183.286,247.692 L183.286,232.63 L176.442,232.63 z M186.723,232.63 L186.723,247.692 L193.567,247.692 L193.567,232.63 L186.723,232.63 z M197.004,232.63 L197.004,247.692 L200.441,247.692 L200.441,232.63 L197.004,232.63 z M203.004,232.63 L203.004,247.692 L206.441,247.692 L206.441,232.63 L203.004,232.63 z M210.691,232.63 L210.691,247.692 L227.848,247.692 L227.848,242.598 C224.708,238.839 220.346,235.456 215.036,232.63 L210.692,232.63 z" opacity="0.21" id="imagebot_346"/>
   </g>
  </g>
 </g>
 <metadata>image/svg+xmlOpenclipartFlames / Fire Vessels2011-03-04T22:30:41Fire, Flames, Flames Vessels, Vessels, candle, candle holder, clip art, clipart, gas lamp, glass, kerosene lamp, lamp, light, lighter, match, orange, street light, tealight, tealight holder, torch, yellow,http://openclipart.org/detail/125413/flames--fire-vessels-by-viscious-speedViscious-SpeedFireFlamesFlames VesselsVesselscandlecandle holderclip artclipartgas lampglasskerosene lamplamplightlightermatchorangestreet lighttealighttealight holdertorchyellow</metadata>
</svg>